<?xml version="1.0" encoding="UTF-8" standalone="no"?>
<!DOCTYPE svg PUBLIC "-//W3C//DTD SVG 1.1//EN" "http://www.w3.org/Graphics/SVG/1.1/DTD/svg11.dtd">
<svg width="100%" height="100%" viewBox="0 0 184 188" version="1.1" xmlns="http://www.w3.org/2000/svg" xmlns:xlink="http://www.w3.org/1999/xlink" xml:space="preserve" xmlns:serif="http://www.serif.com/" style="fill-rule:evenodd;clip-rule:evenodd;stroke-linejoin:round;stroke-miterlimit:2;">
    <g transform="matrix(1.492486,0,0,1.492486,-45.308742,-46.293764)">
        <path d="M108.092,130.021C126.258,128.003 143.385,118.323 152.815,102.167C148.349,142.128 104.653,167.385 68.986,151.878C65.699,150.453 62.87,148.082 60.929,145.034C52.913,132.448 50.279,116.433 54.064,101.899C64.881,120.567 86.875,132.01 108.092,130.021Z" style="fill:rgb(243,176,28);fill-rule:nonzero;"/>
    </g>
    <g transform="matrix(1.492486,0,0,1.492486,-45.308742,-46.293764)">
        <path d="M53.401,90.174C46.038,107.191 45.719,127.114 54.746,143.51C22.976,119.608 23.323,68.458 54.358,44.795C57.229,42.608 60.64,41.31 64.218,41.112C78.931,40.336 93.88,46.023 104.364,56.619C83.064,56.831 62.318,70.476 53.401,90.174Z" style="fill:rgb(141,38,118);fill-rule:nonzero;"/>
    </g>
    <g transform="matrix(1.492486,0,0,1.492486,-45.308742,-46.293764)">
        <path d="M114.637,61.855C103.89,46.87 87.069,36.668 68.639,36.358C104.264,20.188 148.085,46.404 152.856,85.165C153.3,88.763 152.717,92.432 151.122,95.677C144.466,109.195 132.124,119.679 117.702,123.559C128.269,103.96 126.965,80.015 114.637,61.855Z" style="fill:rgb(238,52,47);fill-rule:nonzero;"/>
    </g>
</svg>
